<svg width="16" height="16" xmlns="http://www.w3.org/2000/svg">

 <g>
  <title>background</title>
  <rect fill="none" id="canvas_background" height="402" width="582" y="-1" x="-1"/>
 </g>
 <g>
  <title>Layer 1</title>
  <path id="svg_1" d="m3.74,2l-0.334,0.943l6.854,2.057l-9.26,0l0,9l14,0l0,-9l-0.99,0l-1.865,-0.479l-8.405,-2.521zm-1.74,4l12,0l0,7l-12,0l0,-7zm1,1l0,1l4,0l0,-1l-4,0zm7.5,0a2.49981,2.49981 0 0 0 -2.5,2.5a2.49981,2.49981 0 0 0 2.5,2.5a2.49981,2.49981 0 0 0 2.5,-2.5a2.49981,2.49981 0 0 0 -2.5,-2.5m0.04883,1.01953a1.48053,1.48053 0 0 1 1.48047,1.48047a1.48053,1.48053 0 0 1 -1.48047,1.48047a1.48053,1.48053 0 0 1 -1.47852,-1.48047a1.48053,1.48053 0 0 1 1.47852,-1.48047m-7.549,0.98l0,1l4,0l0,-1l-4,0zm0,2l0,1l4,0l0,-1l-4,0z" stroke-width="1.4" fill="#333333"/>
  <line stroke-linecap="undefined" stroke-linejoin="undefined" id="svg_3" y2="2.414737" x2="14.373722" y1="14.369594" x1="2.683061" stroke-width="1.5" stroke="#d31b1b" fill="none"/>
 </g>
</svg>
